<mxfile host="app.diagrams.net" modified="2021-08-20T12:41:54.245Z" agent="5.0 (Windows NT 10.0; Win64; x64) AppleWebKit/537.36 (KHTML, like Gecko) Chrome/92.0.4515.159 Safari/537.36" etag="DwFfp37ecFYTe0EPrCuo" version="14.9.8" type="github">
  <diagram name="Page-1" id="9f46799a-70d6-7492-0946-bef42562c5a5">
    <mxGraphModel dx="944" dy="497" grid="1" gridSize="10" guides="1" tooltips="1" connect="1" arrows="1" fold="1" page="1" pageScale="1" pageWidth="1100" pageHeight="850" background="#CCFFEC" math="0" shadow="0">
      <root>
        <mxCell id="0" />
        <mxCell id="1" parent="0" />
        <mxCell id="YEok6nSVhJIwH4fhNLR8-1" value="" style="ellipse;whiteSpace=wrap;html=1;" vertex="1" parent="1">
          <mxGeometry x="640" y="55" width="80" height="50" as="geometry" />
        </mxCell>
        <mxCell id="YEok6nSVhJIwH4fhNLR8-2" value="&lt;font size=&quot;1&quot;&gt;&lt;b style=&quot;font-size: 12px&quot;&gt;Home&lt;/b&gt;&lt;/font&gt;" style="text;html=1;strokeColor=none;fillColor=none;align=center;verticalAlign=middle;whiteSpace=wrap;rounded=0;" vertex="1" parent="1">
          <mxGeometry x="670" y="75" width="20" height="10" as="geometry" />
        </mxCell>
        <mxCell id="YEok6nSVhJIwH4fhNLR8-3" value="" style="shape=link;html=1;width=6.666666666666664;" edge="1" parent="1">
          <mxGeometry width="100" relative="1" as="geometry">
            <mxPoint x="679.76" y="105" as="sourcePoint" />
            <mxPoint x="680" y="140" as="targetPoint" />
          </mxGeometry>
        </mxCell>
        <mxCell id="YEok6nSVhJIwH4fhNLR8-4" value="" style="endArrow=classic;html=1;entryX=1;entryY=0.5;entryDx=0;entryDy=0;" edge="1" parent="1" target="YEok6nSVhJIwH4fhNLR8-6">
          <mxGeometry width="50" height="50" relative="1" as="geometry">
            <mxPoint x="677" y="140" as="sourcePoint" />
            <mxPoint x="460" y="142" as="targetPoint" />
          </mxGeometry>
        </mxCell>
        <mxCell id="YEok6nSVhJIwH4fhNLR8-5" value="" style="endArrow=classic;html=1;entryX=0;entryY=0.5;entryDx=0;entryDy=0;" edge="1" parent="1" target="YEok6nSVhJIwH4fhNLR8-8">
          <mxGeometry width="50" height="50" relative="1" as="geometry">
            <mxPoint x="683" y="140" as="sourcePoint" />
            <mxPoint x="753" y="140" as="targetPoint" />
          </mxGeometry>
        </mxCell>
        <mxCell id="YEok6nSVhJIwH4fhNLR8-15" style="edgeStyle=orthogonalEdgeStyle;rounded=0;orthogonalLoop=1;jettySize=auto;html=1;" edge="1" parent="1" source="YEok6nSVhJIwH4fhNLR8-6">
          <mxGeometry relative="1" as="geometry">
            <mxPoint x="411" y="180" as="targetPoint" />
          </mxGeometry>
        </mxCell>
        <mxCell id="YEok6nSVhJIwH4fhNLR8-6" value="" style="rounded=1;whiteSpace=wrap;html=1;arcSize=0;" vertex="1" parent="1">
          <mxGeometry x="376" y="125" width="70" height="30" as="geometry" />
        </mxCell>
        <mxCell id="YEok6nSVhJIwH4fhNLR8-7" value="Admin" style="text;html=1;strokeColor=none;fillColor=none;align=center;verticalAlign=middle;whiteSpace=wrap;rounded=0;" vertex="1" parent="1">
          <mxGeometry x="391" y="130" width="40" height="20" as="geometry" />
        </mxCell>
        <mxCell id="YEok6nSVhJIwH4fhNLR8-17" style="edgeStyle=orthogonalEdgeStyle;rounded=0;orthogonalLoop=1;jettySize=auto;html=1;entryX=0.4;entryY=0;entryDx=0;entryDy=0;entryPerimeter=0;" edge="1" parent="1" source="YEok6nSVhJIwH4fhNLR8-8" target="YEok6nSVhJIwH4fhNLR8-14">
          <mxGeometry relative="1" as="geometry" />
        </mxCell>
        <mxCell id="YEok6nSVhJIwH4fhNLR8-8" value="" style="rounded=1;whiteSpace=wrap;html=1;arcSize=0;" vertex="1" parent="1">
          <mxGeometry x="810" y="125" width="70" height="30" as="geometry" />
        </mxCell>
        <mxCell id="YEok6nSVhJIwH4fhNLR8-9" value="Employee" style="text;html=1;strokeColor=none;fillColor=none;align=center;verticalAlign=middle;whiteSpace=wrap;rounded=0;" vertex="1" parent="1">
          <mxGeometry x="825" y="130" width="40" height="20" as="geometry" />
        </mxCell>
        <mxCell id="YEok6nSVhJIwH4fhNLR8-37" style="edgeStyle=orthogonalEdgeStyle;rounded=0;orthogonalLoop=1;jettySize=auto;html=1;entryX=0.5;entryY=0;entryDx=0;entryDy=0;" edge="1" parent="1" target="YEok6nSVhJIwH4fhNLR8-47">
          <mxGeometry relative="1" as="geometry">
            <mxPoint x="410" y="280" as="sourcePoint" />
            <mxPoint x="540" y="327" as="targetPoint" />
          </mxGeometry>
        </mxCell>
        <mxCell id="YEok6nSVhJIwH4fhNLR8-10" value="" style="rounded=1;whiteSpace=wrap;html=1;" vertex="1" parent="1">
          <mxGeometry x="386" y="180" width="50" height="20" as="geometry" />
        </mxCell>
        <mxCell id="YEok6nSVhJIwH4fhNLR8-11" value="" style="endArrow=classic;html=1;" edge="1" parent="1">
          <mxGeometry width="50" height="50" relative="1" as="geometry">
            <mxPoint x="410.76" y="155" as="sourcePoint" />
            <mxPoint x="411" y="180" as="targetPoint" />
          </mxGeometry>
        </mxCell>
        <mxCell id="YEok6nSVhJIwH4fhNLR8-18" style="edgeStyle=orthogonalEdgeStyle;rounded=0;orthogonalLoop=1;jettySize=auto;html=1;" edge="1" parent="1" target="YEok6nSVhJIwH4fhNLR8-19">
          <mxGeometry relative="1" as="geometry">
            <mxPoint x="180" y="320" as="targetPoint" />
            <mxPoint x="391" y="280" as="sourcePoint" />
            <Array as="points">
              <mxPoint x="160" y="280" />
            </Array>
          </mxGeometry>
        </mxCell>
        <mxCell id="YEok6nSVhJIwH4fhNLR8-23" style="edgeStyle=orthogonalEdgeStyle;rounded=0;orthogonalLoop=1;jettySize=auto;html=1;" edge="1" parent="1">
          <mxGeometry relative="1" as="geometry">
            <mxPoint x="391" y="280" as="sourcePoint" />
            <mxPoint x="250" y="330" as="targetPoint" />
            <Array as="points">
              <mxPoint x="250" y="280" />
            </Array>
          </mxGeometry>
        </mxCell>
        <mxCell id="YEok6nSVhJIwH4fhNLR8-28" style="edgeStyle=orthogonalEdgeStyle;rounded=0;orthogonalLoop=1;jettySize=auto;html=1;entryX=0.417;entryY=-0.038;entryDx=0;entryDy=0;entryPerimeter=0;" edge="1" parent="1" target="YEok6nSVhJIwH4fhNLR8-24">
          <mxGeometry relative="1" as="geometry">
            <mxPoint x="410" y="280" as="sourcePoint" />
          </mxGeometry>
        </mxCell>
        <mxCell id="YEok6nSVhJIwH4fhNLR8-36" style="edgeStyle=orthogonalEdgeStyle;rounded=0;orthogonalLoop=1;jettySize=auto;html=1;exitX=0.5;exitY=1;exitDx=0;exitDy=0;" edge="1" parent="1" source="YEok6nSVhJIwH4fhNLR8-39">
          <mxGeometry relative="1" as="geometry">
            <mxPoint x="411" y="280" as="sourcePoint" />
            <mxPoint x="411" y="330" as="targetPoint" />
            <Array as="points">
              <mxPoint x="411" y="320" />
            </Array>
          </mxGeometry>
        </mxCell>
        <mxCell id="YEok6nSVhJIwH4fhNLR8-42" style="edgeStyle=orthogonalEdgeStyle;rounded=0;orthogonalLoop=1;jettySize=auto;html=1;exitX=0.5;exitY=1;exitDx=0;exitDy=0;entryX=0.5;entryY=0;entryDx=0;entryDy=0;" edge="1" parent="1" source="YEok6nSVhJIwH4fhNLR8-12" target="YEok6nSVhJIwH4fhNLR8-39">
          <mxGeometry relative="1" as="geometry" />
        </mxCell>
        <mxCell id="YEok6nSVhJIwH4fhNLR8-12" value="Login" style="text;html=1;strokeColor=none;fillColor=none;align=center;verticalAlign=middle;whiteSpace=wrap;rounded=0;" vertex="1" parent="1">
          <mxGeometry x="391" y="180" width="40" height="20" as="geometry" />
        </mxCell>
        <mxCell id="YEok6nSVhJIwH4fhNLR8-13" value="" style="rounded=1;whiteSpace=wrap;html=1;" vertex="1" parent="1">
          <mxGeometry x="821" y="180" width="48" height="20" as="geometry" />
        </mxCell>
        <mxCell id="YEok6nSVhJIwH4fhNLR8-14" value="Login" style="text;html=1;strokeColor=none;fillColor=none;align=center;verticalAlign=middle;whiteSpace=wrap;rounded=0;" vertex="1" parent="1">
          <mxGeometry x="829" y="180" width="40" height="20" as="geometry" />
        </mxCell>
        <mxCell id="YEok6nSVhJIwH4fhNLR8-19" value="" style="rounded=0;whiteSpace=wrap;html=1;" vertex="1" parent="1">
          <mxGeometry x="120" y="330" width="80" height="30" as="geometry" />
        </mxCell>
        <mxCell id="YEok6nSVhJIwH4fhNLR8-20" value="&lt;font style=&quot;font-size: 10px&quot;&gt;&lt;b&gt;Add Employee&lt;/b&gt;&lt;/font&gt;" style="text;html=1;strokeColor=none;fillColor=none;align=center;verticalAlign=middle;whiteSpace=wrap;rounded=0;" vertex="1" parent="1">
          <mxGeometry x="132.5" y="335.62" width="55" height="17.5" as="geometry" />
        </mxCell>
        <mxCell id="YEok6nSVhJIwH4fhNLR8-21" value="" style="rounded=0;whiteSpace=wrap;html=1;" vertex="1" parent="1">
          <mxGeometry x="210" y="330" width="80" height="30" as="geometry" />
        </mxCell>
        <mxCell id="YEok6nSVhJIwH4fhNLR8-22" value="&lt;font style=&quot;font-size: 10px&quot;&gt;&lt;b&gt;View Employees&lt;/b&gt;&lt;/font&gt;" style="text;html=1;strokeColor=none;fillColor=none;align=center;verticalAlign=middle;whiteSpace=wrap;rounded=0;" vertex="1" parent="1">
          <mxGeometry x="220" y="335.62" width="60" height="18.75" as="geometry" />
        </mxCell>
        <mxCell id="YEok6nSVhJIwH4fhNLR8-24" value="" style="rounded=0;whiteSpace=wrap;html=1;" vertex="1" parent="1">
          <mxGeometry x="300" y="330" width="60" height="30" as="geometry" />
        </mxCell>
        <mxCell id="YEok6nSVhJIwH4fhNLR8-25" value="&lt;font style=&quot;font-size: 10px&quot;&gt;&lt;b&gt;Grant Leave&lt;/b&gt;&lt;/font&gt;" style="text;html=1;strokeColor=none;fillColor=none;align=center;verticalAlign=middle;whiteSpace=wrap;rounded=0;" vertex="1" parent="1">
          <mxGeometry x="300" y="340" width="60" height="10" as="geometry" />
        </mxCell>
        <mxCell id="YEok6nSVhJIwH4fhNLR8-29" value="" style="rounded=0;whiteSpace=wrap;html=1;" vertex="1" parent="1">
          <mxGeometry x="371" y="330" width="109" height="30" as="geometry" />
        </mxCell>
        <mxCell id="YEok6nSVhJIwH4fhNLR8-30" value="&lt;font style=&quot;line-height: 90% ; font-size: 9px&quot;&gt;&lt;b&gt;Monitoring Employee Status&lt;/b&gt;&lt;/font&gt;" style="text;html=1;strokeColor=none;fillColor=none;align=center;verticalAlign=middle;whiteSpace=wrap;rounded=0;" vertex="1" parent="1">
          <mxGeometry x="381" y="334.37" width="89" height="21.25" as="geometry" />
        </mxCell>
        <mxCell id="YEok6nSVhJIwH4fhNLR8-32" value="" style="rounded=0;whiteSpace=wrap;html=1;" vertex="1" parent="1">
          <mxGeometry x="490" y="330" width="100" height="30" as="geometry" />
        </mxCell>
        <mxCell id="YEok6nSVhJIwH4fhNLR8-33" value="&lt;font style=&quot;font-size: 9px&quot;&gt;&lt;b&gt;CRUD operations on employee&lt;/b&gt;&lt;/font&gt;" style="text;html=1;strokeColor=none;fillColor=none;align=center;verticalAlign=middle;whiteSpace=wrap;rounded=0;" vertex="1" parent="1">
          <mxGeometry x="500" y="345" width="80" as="geometry" />
        </mxCell>
        <mxCell id="YEok6nSVhJIwH4fhNLR8-45" style="edgeStyle=orthogonalEdgeStyle;rounded=0;orthogonalLoop=1;jettySize=auto;html=1;exitX=0;exitY=0.5;exitDx=0;exitDy=0;entryX=0;entryY=0.5;entryDx=0;entryDy=0;" edge="1" parent="1" source="YEok6nSVhJIwH4fhNLR8-39" target="YEok6nSVhJIwH4fhNLR8-10">
          <mxGeometry relative="1" as="geometry" />
        </mxCell>
        <mxCell id="YEok6nSVhJIwH4fhNLR8-50" style="edgeStyle=orthogonalEdgeStyle;rounded=0;orthogonalLoop=1;jettySize=auto;html=1;exitX=0.5;exitY=1;exitDx=0;exitDy=0;" edge="1" parent="1" source="YEok6nSVhJIwH4fhNLR8-39">
          <mxGeometry relative="1" as="geometry">
            <mxPoint x="410.8965517241379" y="270" as="targetPoint" />
          </mxGeometry>
        </mxCell>
        <mxCell id="YEok6nSVhJIwH4fhNLR8-39" value="" style="rhombus;whiteSpace=wrap;html=1;" vertex="1" parent="1">
          <mxGeometry x="382" y="220" width="58" height="30" as="geometry" />
        </mxCell>
        <mxCell id="YEok6nSVhJIwH4fhNLR8-43" style="edgeStyle=orthogonalEdgeStyle;rounded=0;orthogonalLoop=1;jettySize=auto;html=1;entryX=0.5;entryY=0;entryDx=0;entryDy=0;" edge="1" parent="1" target="YEok6nSVhJIwH4fhNLR8-32">
          <mxGeometry relative="1" as="geometry">
            <mxPoint x="411" y="270" as="targetPoint" />
            <mxPoint x="411" y="250" as="sourcePoint" />
            <Array as="points">
              <mxPoint x="411" y="280" />
              <mxPoint x="540" y="280" />
            </Array>
          </mxGeometry>
        </mxCell>
        <mxCell id="YEok6nSVhJIwH4fhNLR8-40" value="verify" style="text;html=1;strokeColor=none;fillColor=none;align=center;verticalAlign=middle;whiteSpace=wrap;rounded=0;" vertex="1" parent="1">
          <mxGeometry x="405.25" y="230" width="11.5" height="10" as="geometry" />
        </mxCell>
        <mxCell id="YEok6nSVhJIwH4fhNLR8-47" value="" style="ellipse;whiteSpace=wrap;html=1;" vertex="1" parent="1">
          <mxGeometry x="610" y="320" width="70" height="40" as="geometry" />
        </mxCell>
        <mxCell id="YEok6nSVhJIwH4fhNLR8-48" value="&lt;b&gt;Logout&lt;/b&gt;" style="text;html=1;strokeColor=none;fillColor=none;align=center;verticalAlign=middle;whiteSpace=wrap;rounded=0;" vertex="1" parent="1">
          <mxGeometry x="625" y="330" width="40" height="20" as="geometry" />
        </mxCell>
        <mxCell id="YEok6nSVhJIwH4fhNLR8-54" style="edgeStyle=orthogonalEdgeStyle;rounded=0;orthogonalLoop=1;jettySize=auto;html=1;exitX=0.5;exitY=1;exitDx=0;exitDy=0;entryX=0.5;entryY=0;entryDx=0;entryDy=0;" edge="1" parent="1" target="YEok6nSVhJIwH4fhNLR8-55">
          <mxGeometry relative="1" as="geometry">
            <mxPoint x="845" y="200" as="sourcePoint" />
          </mxGeometry>
        </mxCell>
        <mxCell id="YEok6nSVhJIwH4fhNLR8-64" style="edgeStyle=orthogonalEdgeStyle;rounded=0;orthogonalLoop=1;jettySize=auto;html=1;exitX=0.5;exitY=1;exitDx=0;exitDy=0;entryX=0.569;entryY=0.02;entryDx=0;entryDy=0;entryPerimeter=0;" edge="1" parent="1" source="YEok6nSVhJIwH4fhNLR8-55" target="YEok6nSVhJIwH4fhNLR8-58">
          <mxGeometry relative="1" as="geometry">
            <Array as="points">
              <mxPoint x="845" y="280" />
              <mxPoint x="760" y="280" />
            </Array>
          </mxGeometry>
        </mxCell>
        <mxCell id="YEok6nSVhJIwH4fhNLR8-66" style="edgeStyle=orthogonalEdgeStyle;rounded=0;orthogonalLoop=1;jettySize=auto;html=1;exitX=0.5;exitY=1;exitDx=0;exitDy=0;entryX=0.449;entryY=-0.036;entryDx=0;entryDy=0;entryPerimeter=0;" edge="1" parent="1" source="YEok6nSVhJIwH4fhNLR8-55" target="YEok6nSVhJIwH4fhNLR8-60">
          <mxGeometry relative="1" as="geometry" />
        </mxCell>
        <mxCell id="YEok6nSVhJIwH4fhNLR8-73" style="edgeStyle=orthogonalEdgeStyle;rounded=0;orthogonalLoop=1;jettySize=auto;html=1;exitX=0.5;exitY=1;exitDx=0;exitDy=0;entryX=0.5;entryY=0;entryDx=0;entryDy=0;" edge="1" parent="1" source="YEok6nSVhJIwH4fhNLR8-55" target="YEok6nSVhJIwH4fhNLR8-71">
          <mxGeometry relative="1" as="geometry">
            <Array as="points">
              <mxPoint x="845" y="280" />
              <mxPoint x="1025" y="280" />
            </Array>
          </mxGeometry>
        </mxCell>
        <mxCell id="YEok6nSVhJIwH4fhNLR8-74" style="edgeStyle=orthogonalEdgeStyle;rounded=0;orthogonalLoop=1;jettySize=auto;html=1;exitX=0.5;exitY=1;exitDx=0;exitDy=0;" edge="1" parent="1" source="YEok6nSVhJIwH4fhNLR8-55">
          <mxGeometry relative="1" as="geometry">
            <mxPoint x="844.689655172414" y="270" as="targetPoint" />
          </mxGeometry>
        </mxCell>
        <mxCell id="YEok6nSVhJIwH4fhNLR8-55" value="" style="rhombus;whiteSpace=wrap;html=1;" vertex="1" parent="1">
          <mxGeometry x="816" y="220" width="58" height="30" as="geometry" />
        </mxCell>
        <mxCell id="YEok6nSVhJIwH4fhNLR8-57" style="edgeStyle=orthogonalEdgeStyle;rounded=0;orthogonalLoop=1;jettySize=auto;html=1;exitX=1;exitY=0.5;exitDx=0;exitDy=0;" edge="1" parent="1" source="YEok6nSVhJIwH4fhNLR8-55">
          <mxGeometry relative="1" as="geometry">
            <mxPoint x="870" y="190" as="targetPoint" />
            <Array as="points">
              <mxPoint x="920" y="235" />
              <mxPoint x="920" y="190" />
            </Array>
          </mxGeometry>
        </mxCell>
        <mxCell id="YEok6nSVhJIwH4fhNLR8-65" style="edgeStyle=orthogonalEdgeStyle;rounded=0;orthogonalLoop=1;jettySize=auto;html=1;entryX=0.5;entryY=0;entryDx=0;entryDy=0;" edge="1" parent="1" target="YEok6nSVhJIwH4fhNLR8-62">
          <mxGeometry relative="1" as="geometry">
            <mxPoint x="845" y="250" as="sourcePoint" />
            <Array as="points">
              <mxPoint x="845" y="280" />
              <mxPoint x="945" y="280" />
            </Array>
          </mxGeometry>
        </mxCell>
        <mxCell id="YEok6nSVhJIwH4fhNLR8-56" value="verify" style="text;html=1;strokeColor=none;fillColor=none;align=center;verticalAlign=middle;whiteSpace=wrap;rounded=0;" vertex="1" parent="1">
          <mxGeometry x="839.25" y="230" width="11.5" height="10" as="geometry" />
        </mxCell>
        <mxCell id="YEok6nSVhJIwH4fhNLR8-58" value="" style="rounded=0;whiteSpace=wrap;html=1;" vertex="1" parent="1">
          <mxGeometry x="720" y="330" width="70" height="30" as="geometry" />
        </mxCell>
        <mxCell id="YEok6nSVhJIwH4fhNLR8-59" value="&lt;b&gt;Profile&lt;/b&gt;" style="text;html=1;strokeColor=none;fillColor=none;align=center;verticalAlign=middle;whiteSpace=wrap;rounded=0;" vertex="1" parent="1">
          <mxGeometry x="740" y="337.5" width="30" height="15" as="geometry" />
        </mxCell>
        <mxCell id="YEok6nSVhJIwH4fhNLR8-60" value="" style="rounded=0;whiteSpace=wrap;html=1;" vertex="1" parent="1">
          <mxGeometry x="810" y="330" width="80" height="30" as="geometry" />
        </mxCell>
        <mxCell id="YEok6nSVhJIwH4fhNLR8-61" value="&lt;b&gt;Attendance&lt;/b&gt;" style="text;html=1;strokeColor=none;fillColor=none;align=center;verticalAlign=middle;whiteSpace=wrap;rounded=0;" vertex="1" parent="1">
          <mxGeometry x="824" y="338.75" width="50" height="14.37" as="geometry" />
        </mxCell>
        <mxCell id="YEok6nSVhJIwH4fhNLR8-62" value="" style="rounded=0;whiteSpace=wrap;html=1;" vertex="1" parent="1">
          <mxGeometry x="910" y="330" width="70" height="29.37" as="geometry" />
        </mxCell>
        <mxCell id="YEok6nSVhJIwH4fhNLR8-69" style="edgeStyle=orthogonalEdgeStyle;rounded=0;orthogonalLoop=1;jettySize=auto;html=1;entryX=0.5;entryY=0;entryDx=0;entryDy=0;" edge="1" parent="1" target="YEok6nSVhJIwH4fhNLR8-67">
          <mxGeometry relative="1" as="geometry">
            <mxPoint x="945" y="360" as="sourcePoint" />
          </mxGeometry>
        </mxCell>
        <mxCell id="YEok6nSVhJIwH4fhNLR8-63" value="&lt;b&gt;Leave&lt;/b&gt;" style="text;html=1;strokeColor=none;fillColor=none;align=center;verticalAlign=middle;whiteSpace=wrap;rounded=0;" vertex="1" parent="1">
          <mxGeometry x="930" y="337.19" width="30" height="14.37" as="geometry" />
        </mxCell>
        <mxCell id="YEok6nSVhJIwH4fhNLR8-67" value="" style="rounded=0;whiteSpace=wrap;html=1;" vertex="1" parent="1">
          <mxGeometry x="900" y="410" width="90" height="38" as="geometry" />
        </mxCell>
        <mxCell id="YEok6nSVhJIwH4fhNLR8-68" value="&lt;b&gt;Apply Leave&lt;/b&gt;" style="text;html=1;strokeColor=none;fillColor=none;align=center;verticalAlign=middle;whiteSpace=wrap;rounded=0;" vertex="1" parent="1">
          <mxGeometry x="920" y="422.75" width="50" height="12.5" as="geometry" />
        </mxCell>
        <mxCell id="YEok6nSVhJIwH4fhNLR8-71" value="" style="ellipse;whiteSpace=wrap;html=1;" vertex="1" parent="1">
          <mxGeometry x="990" y="320" width="70" height="40" as="geometry" />
        </mxCell>
        <mxCell id="YEok6nSVhJIwH4fhNLR8-72" value="&lt;b&gt;Logout&lt;/b&gt;" style="text;html=1;strokeColor=none;fillColor=none;align=center;verticalAlign=middle;whiteSpace=wrap;rounded=0;" vertex="1" parent="1">
          <mxGeometry x="1005" y="330" width="40" height="20" as="geometry" />
        </mxCell>
      </root>
    </mxGraphModel>
  </diagram>
</mxfile>
